<?xml version="1.0" encoding="UTF-8" standalone="no"?>
<!-- Created with Inkscape (http://www.inkscape.org/) -->

<svg
   xmlns:dc="http://purl.org/dc/elements/1.1/"
   xmlns:cc="http://creativecommons.org/ns#"
   xmlns:rdf="http://www.w3.org/1999/02/22-rdf-syntax-ns#"
   xmlns:svg="http://www.w3.org/2000/svg"
   xmlns="http://www.w3.org/2000/svg"
   xmlns:sodipodi="http://sodipodi.sourceforge.net/DTD/sodipodi-0.dtd"
   xmlns:inkscape="http://www.inkscape.org/namespaces/inkscape"
   width="64"
   height="64"
   viewBox="0 0 16.933333 16.933334"
   version="1.1"
   id="svg14"
   inkscape:version="0.92.4 (5da689c313, 2019-01-14)"
   sodipodi:docname="select.svg">
  <defs
     id="defs8" />
  <sodipodi:namedview
     id="base"
     pagecolor="#ffffff"
     bordercolor="#666666"
     borderopacity="1.0"
     inkscape:pageopacity="0"
     inkscape:pageshadow="2"
     inkscape:zoom="3.959798"
     inkscape:cx="27.61459"
     inkscape:cy="57.941778"
     inkscape:document-units="mm"
     inkscape:current-layer="layer1"
     showgrid="false"
     units="px"
     inkscape:window-width="454"
     inkscape:window-height="405"
     inkscape:window-x="497"
     inkscape:window-y="141"
     inkscape:window-maximized="0" />
  <metadata
     id="metadata11">
    <rdf:RDF>
      <cc:Work
         rdf:about="">
        <dc:format>image/svg+xml</dc:format>
        <dc:type
           rdf:resource="http://purl.org/dc/dcmitype/StillImage" />
        <dc:title></dc:title>
      </cc:Work>
    </rdf:RDF>
  </metadata>
  <g
     inkscape:label="Layer 1"
     inkscape:groupmode="layer"
     id="layer1"
     transform="translate(0,-280.06664)">
    <path
       style="fill:#ffffff;stroke:#17280b;stroke-width:1.0605427"
       d="M 32 0.52929688 A 31.469728 31.469728 0 0 0 0.53125 32 A 31.469728 31.469728 0 0 0 32 63.46875 A 31.469728 31.469728 0 0 0 63.470703 32 A 31.469728 31.469728 0 0 0 32 0.52929688 z M 32 8.3984375 A 23.602297 23.602297 0 0 1 55.601562 32 A 23.602297 23.602297 0 0 1 32 55.601562 A 23.602297 23.602297 0 0 1 8.3984375 32 A 23.602297 23.602297 0 0 1 32 8.3984375 z "
       transform="matrix(0.26458333,0,0,0.26458333,0,280.06664)"
       id="path16" />
  </g>
</svg>
